<svg width="271" height="194" viewBox="0 0 271 194" fill="none" xmlns="http://www.w3.org/2000/svg">
<g filter="url(#filter0_d_281_797)">
<path d="M40.6685 63.4488C130.905 0.802446 202.4 44.1947 226.868 73.7216C241.998 91.98 274.127 130.31 245.308 165.706C216.49 201.103 159.894 146.017 110.975 126.594C50.4499 102.563 -49.5683 126.095 40.6685 63.4488Z" fill="#540069"/>
</g>
<g filter="url(#filter1_d_281_797)">
<path d="M45.0772 73.459C99.7787 -7.47124 176.747 22.3781 208.394 47.419C227.963 62.9036 269.359 95.338 257.452 136.73C245.546 178.122 177.121 133.546 128.168 123.494C67.6008 111.057 -9.62439 154.389 45.0772 73.459Z" fill="#7C009B" fill-opacity="0.6" shape-rendering="crispEdges"/>
</g>
<g filter="url(#filter2_d_281_797)">
<path d="M53.6388 107V60.216H64.1108L77.8468 94.216H78.1868L91.9228 60.216H102.395V107H94.9828V72.116H94.7108L80.5668 107H75.1268L61.1188 72.116H60.8468V107H53.6388ZM128.192 107.544C125.29 107.544 122.865 107.363 120.916 107C119.012 106.637 117.493 106.071 116.36 105.3C115.272 104.484 114.456 103.396 113.912 102.036C113.413 100.676 113.073 98.976 112.892 96.936C112.756 94.896 112.688 92.448 112.688 89.592C112.688 86.7813 112.756 84.356 112.892 82.316C113.073 80.276 113.413 78.576 113.912 77.216C114.456 75.856 115.272 74.7907 116.36 74.02C117.493 73.204 119.012 72.6373 120.916 72.32C122.865 71.9573 125.29 71.776 128.192 71.776C131.138 71.776 133.564 71.9573 135.468 72.32C137.417 72.6373 138.936 73.204 140.024 74.02C141.157 74.7907 141.973 75.856 142.472 77.216C143.016 78.576 143.356 80.276 143.492 82.316C143.673 84.356 143.764 86.7813 143.764 89.592C143.764 92.448 143.673 94.896 143.492 96.936C143.356 98.976 143.016 100.676 142.472 102.036C141.973 103.396 141.157 104.484 140.024 105.3C138.936 106.071 137.417 106.637 135.468 107C133.564 107.363 131.138 107.544 128.192 107.544ZM128.192 101.492C130.277 101.492 131.886 101.356 133.02 101.084C134.153 100.812 134.946 100.268 135.4 99.452C135.898 98.636 136.193 97.4347 136.284 95.848C136.42 94.2613 136.488 92.176 136.488 89.592C136.488 87.008 136.42 84.9453 136.284 83.404C136.193 81.8173 135.898 80.616 135.4 79.8C134.946 78.984 134.153 78.4627 133.02 78.236C131.886 77.964 130.277 77.828 128.192 77.828C126.152 77.828 124.565 77.964 123.432 78.236C122.298 78.4627 121.482 78.984 120.984 79.8C120.53 80.616 120.236 81.8173 120.1 83.404C120.009 84.9453 119.964 87.008 119.964 89.592C119.964 92.176 120.009 94.2613 120.1 95.848C120.236 97.4347 120.53 98.636 120.984 99.452C121.482 100.268 122.298 100.812 123.432 101.084C124.565 101.356 126.152 101.492 128.192 101.492ZM164.177 107.544C161.865 107.544 159.916 107.272 158.329 106.728C156.742 106.139 155.473 105.187 154.521 103.872C153.569 102.512 152.866 100.676 152.413 98.364C152.005 96.052 151.801 93.1733 151.801 89.728C151.801 86.2373 152.005 83.336 152.413 81.024C152.866 78.712 153.546 76.8987 154.453 75.584C155.405 74.224 156.652 73.2493 158.193 72.66C159.734 72.0707 161.638 71.776 163.905 71.776C165.582 71.776 167.101 71.912 168.461 72.184C169.821 72.456 171.022 72.932 172.065 73.612C173.153 74.2467 174.014 75.176 174.649 76.4H175.125V56.476H182.333V107H175.669L175.397 102.444H174.989C174.309 103.895 173.38 104.983 172.201 105.708C171.068 106.433 169.798 106.909 168.393 107.136C166.988 107.408 165.582 107.544 164.177 107.544ZM167.101 101.152C169.096 101.152 170.637 100.903 171.725 100.404C172.858 99.86 173.652 99.0213 174.105 97.888C174.558 96.8453 174.83 95.644 174.921 94.284C175.057 92.924 175.125 91.3373 175.125 89.524C175.125 87.8013 175.057 86.3053 174.921 85.036C174.83 83.7213 174.581 82.6107 174.173 81.704C173.674 80.48 172.858 79.596 171.725 79.052C170.637 78.508 169.096 78.236 167.101 78.236C165.288 78.236 163.837 78.372 162.749 78.644C161.706 78.8707 160.913 79.3693 160.369 80.14C159.87 80.8653 159.53 81.9987 159.349 83.54C159.168 85.036 159.077 87.076 159.077 89.66C159.077 92.244 159.168 94.3067 159.349 95.848C159.53 97.344 159.893 98.4773 160.437 99.248C160.981 100.019 161.774 100.54 162.817 100.812C163.905 101.039 165.333 101.152 167.101 101.152ZM207.827 107.544C204.881 107.544 202.433 107.363 200.483 107C198.534 106.592 196.97 105.957 195.791 105.096C194.613 104.189 193.729 103.056 193.139 101.696C192.55 100.291 192.165 98.6133 191.983 96.664C191.802 94.6693 191.711 92.3573 191.711 89.728C191.711 86.6 191.87 83.9027 192.187 81.636C192.505 79.3693 193.162 77.5107 194.159 76.06C195.157 74.564 196.698 73.476 198.783 72.796C200.914 72.116 203.747 71.776 207.283 71.776C210.049 71.776 212.315 72.0027 214.083 72.456C215.851 72.864 217.234 73.5213 218.231 74.428C219.274 75.3347 220.022 76.5133 220.475 77.964C220.974 79.3693 221.291 81.0693 221.427 83.064C221.563 85.0133 221.631 87.2347 221.631 89.728V92.04H198.987C198.987 94.08 199.078 95.7347 199.259 97.004C199.441 98.228 199.849 99.18 200.483 99.86C201.163 100.495 202.206 100.948 203.611 101.22C205.062 101.447 207.011 101.56 209.459 101.56C210.502 101.56 211.635 101.537 212.859 101.492C214.129 101.447 215.421 101.356 216.735 101.22C218.05 101.084 219.229 100.971 220.271 100.88V106.524C219.274 106.705 218.073 106.864 216.667 107C215.262 107.181 213.789 107.317 212.247 107.408C210.706 107.499 209.233 107.544 207.827 107.544ZM214.695 88.164V86.872C214.695 84.832 214.559 83.2227 214.287 82.044C214.061 80.82 213.653 79.9133 213.063 79.324C212.519 78.6893 211.749 78.2813 210.751 78.1C209.799 77.8733 208.598 77.76 207.147 77.76C205.334 77.76 203.883 77.896 202.795 78.168C201.753 78.3947 200.959 78.848 200.415 79.528C199.871 80.208 199.486 81.16 199.259 82.384C199.078 83.5627 198.987 85.1267 198.987 87.076H215.919L214.695 88.164Z" fill="white"/>
</g>
<defs>
<filter id="filter0_d_281_797" x="0.558594" y="31.3838" width="260.348" height="161.924" filterUnits="userSpaceOnUse" color-interpolation-filters="sRGB">
<feFlood flood-opacity="0" result="BackgroundImageFix"/>
<feColorMatrix in="SourceAlpha" type="matrix" values="0 0 0 0 0 0 0 0 0 0 0 0 0 0 0 0 0 0 127 0" result="hardAlpha"/>
<feOffset dy="12"/>
<feGaussianBlur stdDeviation="2"/>
<feComposite in2="hardAlpha" operator="out"/>
<feColorMatrix type="matrix" values="0 0 0 0 0 0 0 0 0 0 0 0 0 0 0 0 0 0 0.25 0"/>
<feBlend mode="normal" in2="BackgroundImageFix" result="effect1_dropShadow_281_797"/>
<feBlend mode="normal" in="SourceGraphic" in2="effect1_dropShadow_281_797" result="shape"/>
</filter>
<filter id="filter1_d_281_797" x="22.4336" y="20.6875" width="241.133" height="149.344" filterUnits="userSpaceOnUse" color-interpolation-filters="sRGB">
<feFlood flood-opacity="0" result="BackgroundImageFix"/>
<feColorMatrix in="SourceAlpha" type="matrix" values="0 0 0 0 0 0 0 0 0 0 0 0 0 0 0 0 0 0 127 0" result="hardAlpha"/>
<feOffset dy="12"/>
<feGaussianBlur stdDeviation="2"/>
<feComposite in2="hardAlpha" operator="out"/>
<feColorMatrix type="matrix" values="0 0 0 0 0 0 0 0 0 0 0 0 0 0 0 0 0 0 0.25 0"/>
<feBlend mode="normal" in2="BackgroundImageFix" result="effect1_dropShadow_281_797"/>
<feBlend mode="normal" in="SourceGraphic" in2="effect1_dropShadow_281_797" result="shape"/>
</filter>
<filter id="filter2_d_281_797" x="49.6406" y="56.4756" width="175.992" height="67.0684" filterUnits="userSpaceOnUse" color-interpolation-filters="sRGB">
<feFlood flood-opacity="0" result="BackgroundImageFix"/>
<feColorMatrix in="SourceAlpha" type="matrix" values="0 0 0 0 0 0 0 0 0 0 0 0 0 0 0 0 0 0 127 0" result="hardAlpha"/>
<feOffset dy="12"/>
<feGaussianBlur stdDeviation="2"/>
<feComposite in2="hardAlpha" operator="out"/>
<feColorMatrix type="matrix" values="0 0 0 0 0 0 0 0 0 0 0 0 0 0 0 0 0 0 0.25 0"/>
<feBlend mode="normal" in2="BackgroundImageFix" result="effect1_dropShadow_281_797"/>
<feBlend mode="normal" in="SourceGraphic" in2="effect1_dropShadow_281_797" result="shape"/>
</filter>
</defs>
</svg>
